<?xml version="1.0" encoding="UTF-8" standalone="no"?>
<!DOCTYPE svg PUBLIC "-//W3C//DTD SVG 1.1//EN"
 "http://www.w3.org/Graphics/SVG/1.1/DTD/svg11.dtd">
<!-- Generated by graphviz version 2.42.3 (20191010.1750)
 -->
<!-- Title: snakemake_dag Pages: 1 -->
<svg width="502pt" height="260pt"
 viewBox="0.00 0.00 501.50 260.00" xmlns="http://www.w3.org/2000/svg" xmlns:xlink="http://www.w3.org/1999/xlink">
<g id="graph0" class="graph" transform="scale(1 1) rotate(0) translate(4 256)">
<title>snakemake_dag</title>
<polygon fill="white" stroke="transparent" points="-4,4 -4,-256 497.5,-256 497.5,4 -4,4"/>
<!-- 0 -->
<g id="node1" class="node">
<title>0</title>
<path fill="none" stroke="#59d856" stroke-width="2" d="M222,-252C222,-252 192,-252 192,-252 186,-252 180,-246 180,-240 180,-240 180,-228 180,-228 180,-222 186,-216 192,-216 192,-216 222,-216 222,-216 228,-216 234,-222 234,-228 234,-228 234,-240 234,-240 234,-246 228,-252 222,-252"/>
<text text-anchor="middle" x="207" y="-231.5" font-family="sans" font-size="10.00">rehh</text>
</g>
<!-- 2 -->
<g id="node3" class="node">
<title>2</title>
<path fill="none" stroke="#d6d856" stroke-width="2" d="M266,-180C266,-180 220,-180 220,-180 214,-180 208,-174 208,-168 208,-168 208,-156 208,-156 208,-150 214,-144 220,-144 220,-144 266,-144 266,-144 272,-144 278,-150 278,-156 278,-156 278,-168 278,-168 278,-174 272,-180 266,-180"/>
<text text-anchor="middle" x="243" y="-159.5" font-family="sans" font-size="10.00">results_bin</text>
</g>
<!-- 0&#45;&gt;2 -->
<g id="edge2" class="edge">
<title>0&#45;&gt;2</title>
<path fill="none" stroke="grey" stroke-width="2" d="M215.9,-215.7C220,-207.73 224.95,-198.1 229.49,-189.26"/>
<polygon fill="grey" stroke="grey" stroke-width="2" points="232.74,-190.6 234.2,-180.1 226.52,-187.4 232.74,-190.6"/>
</g>
<!-- 1 -->
<g id="node2" class="node">
<title>1</title>
<path fill="none" stroke="#56d8a9" stroke-width="2" d="M294,-252C294,-252 264,-252 264,-252 258,-252 252,-246 252,-240 252,-240 252,-228 252,-228 252,-222 258,-216 264,-216 264,-216 294,-216 294,-216 300,-216 306,-222 306,-228 306,-228 306,-240 306,-240 306,-246 300,-252 294,-252"/>
<text text-anchor="middle" x="279" y="-231.5" font-family="sans" font-size="10.00">pbs</text>
</g>
<!-- 1&#45;&gt;2 -->
<g id="edge1" class="edge">
<title>1&#45;&gt;2</title>
<path fill="none" stroke="grey" stroke-width="2" d="M270.1,-215.7C266,-207.73 261.05,-198.1 256.51,-189.26"/>
<polygon fill="grey" stroke="grey" stroke-width="2" points="259.48,-187.4 251.8,-180.1 253.26,-190.6 259.48,-187.4"/>
</g>
<!-- 3 -->
<g id="node4" class="node">
<title>3</title>
<path fill="none" stroke="#80d856" stroke-width="2" d="M68,-108C68,-108 12,-108 12,-108 6,-108 0,-102 0,-96 0,-96 0,-84 0,-84 0,-78 6,-72 12,-72 12,-72 68,-72 68,-72 74,-72 80,-78 80,-84 80,-84 80,-96 80,-96 80,-102 74,-108 68,-108"/>
<text text-anchor="middle" x="40" y="-87.5" font-family="sans" font-size="10.00">pheno_annot</text>
</g>
<!-- 2&#45;&gt;3 -->
<g id="edge3" class="edge">
<title>2&#45;&gt;3</title>
<path fill="none" stroke="grey" stroke-width="2" d="M207.82,-148.92C178.62,-138.89 135.73,-124.14 89.67,-108.23"/>
<polygon fill="grey" stroke="grey" stroke-width="2" points="90.7,-104.88 80.11,-104.92 88.42,-111.5 90.7,-104.88"/>
</g>
<!-- 4 -->
<g id="node5" class="node">
<title>4</title>
<path fill="none" stroke="#d88556" stroke-width="2" d="M140,-108C140,-108 110,-108 110,-108 104,-108 98,-102 98,-96 98,-96 98,-84 98,-84 98,-78 104,-72 110,-72 110,-72 140,-72 140,-72 146,-72 152,-78 152,-84 152,-84 152,-96 152,-96 152,-102 146,-108 140,-108"/>
<text text-anchor="middle" x="125" y="-87.5" font-family="sans" font-size="10.00">enrichr</text>
</g>
<!-- 2&#45;&gt;4 -->
<g id="edge4" class="edge">
<title>2&#45;&gt;4</title>
<path fill="none" stroke="grey" stroke-width="2" d="M214.13,-143.88C198.24,-134.45 178.37,-122.66 161.42,-112.61"/>
<polygon fill="grey" stroke="grey" stroke-width="2" points="162.74,-109.32 152.35,-107.23 159.17,-115.34 162.74,-109.32"/>
</g>
<!-- 5 -->
<g id="node6" class="node">
<title>5</title>
<path fill="none" stroke="#d8ac56" stroke-width="2" d="M220,-108C220,-108 182,-108 182,-108 176,-108 170,-102 170,-96 170,-96 170,-84 170,-84 170,-78 176,-72 182,-72 182,-72 220,-72 220,-72 226,-72 232,-78 232,-84 232,-84 232,-96 232,-96 232,-102 226,-108 220,-108"/>
<text text-anchor="middle" x="201" y="-87.5" font-family="sans" font-size="10.00">get_eQTL</text>
</g>
<!-- 2&#45;&gt;5 -->
<g id="edge5" class="edge">
<title>2&#45;&gt;5</title>
<path fill="none" stroke="grey" stroke-width="2" d="M232.62,-143.7C227.74,-135.56 221.81,-125.69 216.42,-116.7"/>
<polygon fill="grey" stroke="grey" stroke-width="2" points="219.41,-114.88 211.26,-108.1 213.41,-118.48 219.41,-114.88"/>
</g>
<!-- 6 -->
<g id="node7" class="node">
<title>6</title>
<path fill="none" stroke="#afd856" stroke-width="2" d="M309.5,-108C309.5,-108 262.5,-108 262.5,-108 256.5,-108 250.5,-102 250.5,-96 250.5,-96 250.5,-84 250.5,-84 250.5,-78 256.5,-72 262.5,-72 262.5,-72 309.5,-72 309.5,-72 315.5,-72 321.5,-78 321.5,-84 321.5,-84 321.5,-96 321.5,-96 321.5,-102 315.5,-108 309.5,-108"/>
<text text-anchor="middle" x="286" y="-87.5" font-family="sans" font-size="10.00">webgestalt</text>
</g>
<!-- 2&#45;&gt;6 -->
<g id="edge6" class="edge">
<title>2&#45;&gt;6</title>
<path fill="none" stroke="grey" stroke-width="2" d="M253.63,-143.7C258.63,-135.56 264.69,-125.69 270.21,-116.7"/>
<polygon fill="grey" stroke="grey" stroke-width="2" points="273.24,-118.46 275.49,-108.1 267.28,-114.79 273.24,-118.46"/>
</g>
<!-- 7 -->
<g id="node8" class="node">
<title>7</title>
<path fill="none" stroke="#56d882" stroke-width="2" d="M386.5,-108C386.5,-108 351.5,-108 351.5,-108 345.5,-108 339.5,-102 339.5,-96 339.5,-96 339.5,-84 339.5,-84 339.5,-78 345.5,-72 351.5,-72 351.5,-72 386.5,-72 386.5,-72 392.5,-72 398.5,-78 398.5,-84 398.5,-84 398.5,-96 398.5,-96 398.5,-102 392.5,-108 386.5,-108"/>
<text text-anchor="middle" x="369" y="-87.5" font-family="sans" font-size="10.00">goatools</text>
</g>
<!-- 2&#45;&gt;7 -->
<g id="edge7" class="edge">
<title>2&#45;&gt;7</title>
<path fill="none" stroke="grey" stroke-width="2" d="M273.82,-143.88C290.82,-134.43 312.09,-122.61 330.21,-112.55"/>
<polygon fill="grey" stroke="grey" stroke-width="2" points="332.32,-115.38 339.36,-107.47 328.92,-109.26 332.32,-115.38"/>
</g>
<!-- 8 -->
<g id="node9" class="node">
<title>8</title>
<path fill="none" stroke="#5682d8" stroke-width="2" d="M481.5,-108C481.5,-108 428.5,-108 428.5,-108 422.5,-108 416.5,-102 416.5,-96 416.5,-96 416.5,-84 416.5,-84 416.5,-78 422.5,-72 428.5,-72 428.5,-72 481.5,-72 481.5,-72 487.5,-72 493.5,-78 493.5,-84 493.5,-84 493.5,-96 493.5,-96 493.5,-102 487.5,-108 481.5,-108"/>
<text text-anchor="middle" x="455" y="-87.5" font-family="sans" font-size="10.00">metanalysis</text>
</g>
<!-- 2&#45;&gt;8 -->
<g id="edge8" class="edge">
<title>2&#45;&gt;8</title>
<path fill="none" stroke="grey" stroke-width="2" d="M278.21,-150.1C309.67,-140.26 357.24,-125.18 406.72,-108.39"/>
<polygon fill="grey" stroke="grey" stroke-width="2" points="407.97,-111.66 416.31,-105.12 405.72,-105.03 407.97,-111.66"/>
</g>
<!-- 9 -->
<g id="node10" class="node">
<title>9</title>
<path fill="none" stroke="#56a9d8" stroke-width="2" d="M275.5,-36C275.5,-36 210.5,-36 210.5,-36 204.5,-36 198.5,-30 198.5,-24 198.5,-24 198.5,-12 198.5,-12 198.5,-6 204.5,0 210.5,0 210.5,0 275.5,0 275.5,0 281.5,0 287.5,-6 287.5,-12 287.5,-12 287.5,-24 287.5,-24 287.5,-30 281.5,-36 275.5,-36"/>
<text text-anchor="middle" x="243" y="-15.5" font-family="sans" font-size="10.00">summarise_all</text>
</g>
<!-- 3&#45;&gt;9 -->
<g id="edge12" class="edge">
<title>3&#45;&gt;9</title>
<path fill="none" stroke="grey" stroke-width="2" d="M80.11,-75.08C83.12,-74.03 86.11,-73 89,-72 122.01,-60.59 159.03,-47.85 188.49,-37.72"/>
<polygon fill="grey" stroke="grey" stroke-width="2" points="189.86,-40.95 198.18,-34.39 187.58,-34.33 189.86,-40.95"/>
</g>
<!-- 4&#45;&gt;9 -->
<g id="edge9" class="edge">
<title>4&#45;&gt;9</title>
<path fill="none" stroke="grey" stroke-width="2" d="M152.07,-72.94C167.83,-63.59 187.94,-51.66 205.24,-41.4"/>
<polygon fill="grey" stroke="grey" stroke-width="2" points="207.18,-44.32 213.99,-36.21 203.61,-38.3 207.18,-44.32"/>
</g>
<!-- 5&#45;&gt;9 -->
<g id="edge10" class="edge">
<title>5&#45;&gt;9</title>
<path fill="none" stroke="grey" stroke-width="2" d="M211.38,-71.7C216.26,-63.56 222.19,-53.69 227.58,-44.7"/>
<polygon fill="grey" stroke="grey" stroke-width="2" points="230.59,-46.48 232.74,-36.1 224.59,-42.88 230.59,-46.48"/>
</g>
<!-- 6&#45;&gt;9 -->
<g id="edge11" class="edge">
<title>6&#45;&gt;9</title>
<path fill="none" stroke="grey" stroke-width="2" d="M275.37,-71.7C270.37,-63.56 264.31,-53.69 258.79,-44.7"/>
<polygon fill="grey" stroke="grey" stroke-width="2" points="261.72,-42.79 253.51,-36.1 255.76,-46.46 261.72,-42.79"/>
</g>
<!-- 7&#45;&gt;9 -->
<g id="edge13" class="edge">
<title>7&#45;&gt;9</title>
<path fill="none" stroke="grey" stroke-width="2" d="M339.46,-72.59C322.46,-63.14 300.87,-51.15 282.44,-40.91"/>
<polygon fill="grey" stroke="grey" stroke-width="2" points="284.11,-37.84 273.67,-36.04 280.71,-43.96 284.11,-37.84"/>
</g>
<!-- 8&#45;&gt;9 -->
<g id="edge14" class="edge">
<title>8&#45;&gt;9</title>
<path fill="none" stroke="grey" stroke-width="2" d="M416.31,-74.88C413.5,-73.89 410.71,-72.92 408,-72 371.23,-59.45 329.57,-46.07 297.31,-35.9"/>
<polygon fill="grey" stroke="grey" stroke-width="2" points="298.2,-32.51 287.61,-32.85 296.1,-39.19 298.2,-32.51"/>
</g>
</g>
</svg>
